# File created by Blade
# Date/Time:  Thu Jan 22 19:29:39 2015
# Frame Rate: 120.000 fps
#------------------------------------------------------
:FULLY-SPECIFIED
:DEGREES
915
root 1.951933 34.382186 0.048964 86.818989 -12.981203 -28.196121
RightUpLeg -3.101583 15.822834 -24.842312
RightLeg 151.052944 -0.000000 -0.000000
RightFoot 35.536272 6.414523 3.865506
RightToeBase -18.373466 -0.000000 0.000000
LeftUpLeg -92.485355 19.967039 6.456382
LeftLeg 32.377810 -0.000000 -0.000000
LeftFoot -21.282772 1.876761 -16.398958
LeftToeBase 11.051443 -0.000000 -0.000000
Spine -14.601628 -4.451570 0.910266
RightShoulder -20.169895 -35.150601 -12.155420
RightArm 6.159332 -60.041677 64.740176
RightForeArm 37.298589 -0.000000 40.177299
RightHand -9.450930 -0.000000 16.843307
RightHandThumb1 -24.326973 -0.000000 -32.862282
LeftShoulder -33.955506 6.365826 34.952450
LeftArm 151.892581 -46.188548 -120.571986
LeftForeArm -16.068270 -0.000000 62.358931
LeftHand -14.522570 0.000000 9.869056
LeftHandThumb1 -26.253704 0.000000 33.147579
Head -28.503994 26.293890 -12.089138
916
root 1.942822 34.380935 0.046779 86.806108 -12.896585 -28.212646
RightUpLeg -3.143226 15.946746 -24.867333
RightLeg 151.077523 -0.000000 -0.000000
RightFoot 35.476970 6.439982 3.756817
RightToeBase -18.515493 -0.000000 0.000000
LeftUpLeg -92.364983 19.992039 6.943098
LeftLeg 32.466549 -0.000000 -0.000000
LeftFoot -21.246624 1.741113 -16.350159
LeftToeBase 10.846499 -0.000000 -0.000000
Spine -14.592548 -4.378446 0.803166
RightShoulder -20.209209 -35.140917 -12.106465
RightArm 6.133135 -59.990049 64.775698
RightForeArm 37.294561 -0.000000 40.192426
RightHand -9.487115 -0.000000 16.880309
RightHandThumb1 -24.326973 -0.000000 -32.862282
LeftShoulder -33.981255 6.322164 34.953805
LeftArm 152.021895 -45.978426 -120.353513
LeftForeArm -16.020814 0.000000 62.309607
LeftHand -14.572361 -0.000000 10.012624
LeftHandThumb1 -26.253704 0.000000 33.147579
Head -28.558848 26.336358 -12.011922
917
root 1.936391 34.375097 0.044443 86.781232 -12.809458 -28.194212
RightUpLeg -3.164046 16.091429 -24.884046
RightLeg 151.083121 -0.000000 -0.000000
RightFoot 35.480523 6.485012 3.812378
RightToeBase -18.626788 -0.000000 0.000000
LeftUpLeg -92.232282 19.960487 7.346241
LeftLeg 32.467272 -0.000000 -0.000000
LeftFoot -21.309414 1.672467 -16.360195
LeftToeBase 10.806200 -0.000000 -0.000000
Spine -14.606360 -4.326533 0.724724
RightShoulder -20.253331 -35.177254 -12.090686
RightArm 6.217595 -59.950752 64.718604
RightForeArm 37.168865 -0.000000 40.174654
RightHand -9.416176 -0.000000 16.895956
RightHandThumb1 -24.326973 -0.000000 -32.862282
LeftShoulder -33.952836 6.288550 34.955503
LeftArm 152.147219 -45.748771 -120.175796
LeftForeArm -15.853161 0.000000 62.302380
LeftHand -14.680554 -0.000000 9.977054
LeftHandThumb1 -26.253704 0.000000 33.147579
Head -28.498877 26.328980 -11.918417
918
root 1.928525 34.366159 0.043451 86.710112 -12.716327 -28.187443
RightUpLeg -3.149990 16.242982 -24.883365
RightLeg 151.080304 -0.000000 -0.000000
RightFoot 35.578326 6.511586 3.931174
RightToeBase -19.216312 -0.000000 0.000000
LeftUpLeg -91.986481 19.912169 7.750942
LeftLeg 32.337390 -0.000000 -0.000000
LeftFoot -21.469401 1.689476 -16.301550
LeftToeBase 10.848207 -0.000000 -0.000000
Spine -14.575587 -4.341563 0.665721
RightShoulder -20.160051 -35.106987 -12.146635
RightArm 6.161057 -59.956428 64.754470
RightForeArm 37.123314 0.000000 40.158011
RightHand -9.428496 -0.000000 17.023552
RightHandThumb1 -24.326973 -0.000000 -32.862282
LeftShoulder -33.957631 6.279190 34.944981
LeftArm 152.276444 -45.554842 -119.962940
LeftForeArm -15.823658 -0.000000 62.321255
LeftHand -14.731897 -0.000000 10.001825
LeftHandThumb1 -26.253704 0.000000 33.147579
Head -28.467121 26.345356 -11.783674
919
root 1.919448 34.353648 0.042796 86.601172 -12.624089 -28.223558
RightUpLeg -3.133184 16.458046 -24.877338
RightLeg 151.080431 -0.000000 -0.000000
RightFoot 35.610439 6.513747 3.970838
RightToeBase -19.237649 -0.000000 0.000000
LeftUpLeg -91.647144 19.876326 8.168943
LeftLeg 32.152313 -0.000000 -0.000000
LeftFoot -21.745407 1.791234 -16.067358
LeftToeBase 10.863145 -0.000000 -0.000000
Spine -14.486598 -4.311715 0.627912
RightShoulder -20.119290 -35.040265 -12.179232
RightArm 6.234332 -60.025922 64.647450
RightForeArm 37.139947 0.000000 40.162504
RightHand -9.444221 -0.000000 16.968064
RightHandThumb1 -24.326973 -0.000000 -32.862282
LeftShoulder -33.952590 6.228914 34.960825
LeftArm 152.313273 -45.335186 -119.740147
LeftForeArm -15.682488 -0.000000 62.408906
LeftHand -14.724528 -0.000000 10.028036
LeftHandThumb1 -26.253704 0.000000 33.147579
Head -28.464219 26.410058 -11.691482
920
root 1.913633 34.333974 0.043960 86.488678 -12.550690 -28.240096
RightUpLeg -3.104359 16.633417 -24.913295
RightLeg 151.060009 -0.000000 -0.000000
RightFoot 35.625709 6.490534 3.905740
RightToeBase -19.268730 -0.000000 0.000000
LeftUpLeg -91.248235 19.782182 8.599514
LeftLeg 31.883528 -0.000000 -0.000000
LeftFoot -22.107158 1.982117 -15.784459
LeftToeBase 11.001862 -0.000000 -0.000000
Spine -14.449990 -4.290705 0.591152
RightShoulder -20.069146 -35.054778 -12.222906
RightArm 6.412741 -60.086859 64.451064
RightForeArm 37.131190 -0.000000 40.170974
RightHand -9.444239 -0.000000 16.987286
RightHandThumb1 -24.326973 -0.000000 -32.862282
LeftShoulder -33.899981 6.202378 34.997669
LeftArm 152.281033 -45.086633 -119.497416
LeftForeArm -15.438400 -0.000000 62.561161
LeftHand -14.851846 -0.000000 10.125906
LeftHandThumb1 -26.253704 0.000000 33.147579
Head -28.340606 26.451219 -11.577890
921
root 1.906163 34.311871 0.045708 86.360817 -12.475491 -28.292194
RightUpLeg -3.071743 16.879681 -24.935420
RightLeg 151.051360 -0.000000 -0.000000
RightFoot 35.599631 6.496934 3.863639
RightToeBase -19.144046 -0.000000 0.000000
LeftUpLeg -90.783034 19.713011 9.068231
LeftLeg 31.577246 -0.000000 -0.000000
LeftFoot -22.521873 2.182442 -15.462593
LeftToeBase 11.228500 -0.000000 -0.000000
Spine -14.403479 -4.247071 0.554363
RightShoulder -19.990381 -35.041361 -12.260925
RightArm 6.489891 -60.114154 64.313783
RightForeArm 37.140791 -0.000000 40.210584
RightHand -9.452528 -0.000000 17.004153
RightHandThumb1 -24.326973 -0.000000 -32.862282
LeftShoulder -33.873083 6.159149 35.027876
LeftArm 152.200815 -44.768075 -119.169300
LeftForeArm -15.178870 -0.000000 62.694675
LeftHand -14.931340 -0.000000 10.120492
LeftHandThumb1 -26.253704 0.000000 33.147579
Head -28.207860 26.592103 -11.476329
922
root 1.899470 34.285463 0.047791 86.217493 -12.412512 -28.346692
RightUpLeg -3.039492 17.061755 -25.005441
RightLeg 151.044831 -0.000000 -0.000000
RightFoot 35.464656 6.556455 3.481063
RightToeBase -18.827872 -0.000000 0.000000
LeftUpLeg -90.302588 19.622087 9.536210
LeftLeg 31.281768 -0.000000 -0.000000
LeftFoot -22.967132 2.445139 -15.132782
LeftToeBase 11.322572 -0.000000 -0.000000
Spine -14.341066 -4.233195 0.547015
RightShoulder -19.894936 -35.002930 -12.363577
RightArm 6.521755 -60.101912 64.244649
RightForeArm 36.954555 0.000000 40.263903
RightHand -9.496965 -0.000000 17.129343
RightHandThumb1 -24.326973 -0.000000 -32.862282
LeftShoulder -33.876462 6.152121 35.003065
LeftArm 152.153356 -44.475476 -118.865811
LeftForeArm -14.940411 -0.000000 62.814560
LeftHand -15.042122 -0.000000 10.113827
LeftHandThumb1 -26.253704 0.000000 33.147579
Head -28.095729 26.776215 -11.463900
